<?xml version="1.0" encoding="utf-8"?>
<!-- Generator: Adobe Illustrator 21.1.0, SVG Export Plug-In . SVG Version: 6.00 Build 0)  -->
<svg version="1.1" id="Layer_1" xmlns="http://www.w3.org/2000/svg" xmlns:xlink="http://www.w3.org/1999/xlink" x="0px" y="0px"
	 viewBox="0 0 1222 1202" style="enable-background:new 0 0 1222 1202;" xml:space="preserve">
<style type="text/css">
	.st0{fill:#FBF0D6;}
	.st1{fill:#FBE2A6;}
</style>
<path class="st0" d="M252.9,613.4c0-197.3,159.9-357.2,357.2-357.2s357.2,159.9,357.2,357.2c0,55-12.4,107.1-34.6,153.6h238.9
	c13.4-48.9,20.5-100.4,20.5-153.6c0-321.4-260.6-582-582-582s-582,260.6-582,582c0,53.2,7.1,104.7,20.5,153.6h238.9
	C265.3,720.5,252.9,668.4,252.9,613.4z"/>
<path class="st1" d="M610.1,256.1c-197.3,0-357.2,159.9-357.2,357.2c0,55,12.4,107.1,34.6,153.6h645.2
	c22.2-46.5,34.6-98.6,34.6-153.6C967.4,416.1,807.4,256.1,610.1,256.1z"/>
</svg>
